<?xml version="1.0" encoding="UTF-8"?>
<svg id="Layer_2" data-name="Layer 2" xmlns="http://www.w3.org/2000/svg" viewBox="0 0 762.34 439.37">
  <defs>
    <style>
      .cls-1 {
        fill: #4db748;
      }

      .cls-2 {
        fill: #f37321;
      }

      .cls-3 {
        fill: #d93838;
      }

      .cls-4 {
        fill: #efda3a;
      }

      .cls-5 {
        fill: #97ce88;
      }

      .cls-6 {
        fill: #e22f2f;
      }

      .cls-7 {
        fill: #f2af50;
      }
    </style>
  </defs>
  <g id="juice">
    <g>
      <path class="cls-1" d="m355.82,366.45c3.29,5.38,5.18,5.98,10.65,3.34,4.38-1.9,4.55-5.25,3.16-9.15-1.25-3.49-3.89-4.74-7.39-4.62-5.29.18-7.82,4.3-6.42,10.42Zm-33.43,23.41c6.41-4.26,7.01-10.73,6.78-17.57-.37-10.84-10.61-19.17-21.28-17.22-12.19,2.22-19.12,13.22-15.91,25.23,3.2,12.36,18.84,18.34,30.41,9.57ZM102.55,132.81c.19-12.95-8.03-20.72-19.37-20.77-7.6-.03-18.62,6.95-18.3,20.36.24,10.19,8.55,19.84,18.72,19.51,9.19-.3,19.85-8.74,18.95-19.1Zm263.28,19.08c-7.16-6.47-14.96-9.19-22.06-13.12-9.61-5.32-20.02-5.64-30.56-5-5.03.31-10.1,6.18-9.1,10.21,1.18,4.73,5.27,7.88,10.55,7.9,12.84.05,25.69.02,38.53.01,3.84,0,7.68,0,12.64,0Zm217.24-121.52c5.07-.04,8.92-3.9,9.04-9.1.11-4.53-4.95-9.09-10.03-9.04-5.41.05-9.1,4.07-9,9.81.09,5.03,4.1,8.37,10,8.33Zm-21.2,294.35c-5.92,0-10.84-.2-15.73.06-4.91.25-7.52,5.01-5.17,8.93,2.17,3.62,11.71,4.62,14.27,1.28,2.31-3.01,4.15-6.37,6.63-10.26ZM106.86,101.56c.02,3.95,3.04,7.02,6.87,6.98,3.51-.03,7.11-3.66,7.05-7.11-.06-3.55-3.69-6.89-7.41-6.81-3.65.08-6.54,3.15-6.52,6.93Zm575.19,177.41c.03-3.67-2.25-6.15-5.66-6.16-3.65-.01-6.07,2.33-6.06,5.87,0,3.47,2.54,6,6.01,6,3.35,0,5.69-2.34,5.71-5.71Z"/>
      <path class="cls-2" d="m480.55,224.07c8.45-5.91,16.65-12.22,25.42-17.62,8.76-5.4,18.78-7.51,28.97-8.6,2.39,1.05,4.75,1.79,6.87-.55,2.34.18,4.69.36,7.03.54.37.26.73.53,1.1.79,4.84-.84,8.94,2.29,13.57,2.54,1.85,2.57,4.57,1.05,6.83,1.57,7.24,1.67,14.38,3.65,21.93,2.83,2.63,1.23,4.22-.47,5.86-2.06,14.72-14.37,27.84-29.99,37.32-48.38,2.75-5.34,7.06-9.65,9.68-15.01,3.89-7.93,9.06-15.05,13.67-22.52,4.13-6.69,10.48-11.37,16.25-16.46,7.87-6.96,17.11-11.81,27.44-14.12,10.13-2.27,20.42-3.4,30.84-2.76,1.93.12,3.09-.63,4.32-2.17,2.62-3.26,2.97-7.58,5.54-10.8,4.19-7.53,8.47-15,13.91-21.74,1.48-1.84,2.47-4.17,5.25-4.46v178.84c-11.63.13-22.75,2.76-33.63,6.66-1.47.53-3.03.82-4.55,1.23-1.48-.34-2.36-1.54-3.5-2.38-4.95-3.63-10.69-3.63-15.46-.08-5.04,3.76-7.14,9.78-5.32,15.3-10.98,8.69-22.9,15.87-36.16,20.37-8.05,2.74-16.64,2.8-25.15,2.54-6.62-.2-13.26-.15-19.88-.38-4.56-.15-8.73,1.22-12.87,2.8-1.85-2.5-4.91-2.62-7.46-3.71-7.71-3.29-18.59.62-22.66,7.83-4.71,8.34-2.54,16,1.93,23.52-3.9,7.9-8.61,15.35-12.95,23-1.16,2.05-2.59,2.27-4.56,2.34-5.76.19-11.56-.63-17.29.54-.92-5.38-2.36-10.73-2.63-16.14-.44-8.94.46-17.97-.28-26.87-.73-8.77,2.29-17.23,1.25-25.93-.07-.57.51-1.33.97-1.85,2.68-3.04.76-3.54-1.96-3.63.82-1.54,2.39-1.92,3.83-2.51,5.99-2.45,12.48-2.74,18.68-4.28,4.1-1.02,7.61-3.19,10.7-5.96,2.48-2.23,1.99-4.47-1.27-5.29-2.68-.67-5.28-1.56-7.54-2.97-8.22-5.11-16.61-3.52-24.43.1-5.61,2.6-10.81,6.34-15.11,11.19-4.45,5.03-8.96,9.92-12.95,15.39-5.5,7.55-12.47,13.74-19.62,19.88-9.7,8.34-20.28,15.45-30.23,23.41-11.27,9.02-24.49,15.45-37.78,21.26-7.9,3.45-16.38,4.87-24.86,6.59-13.39,2.73-25.63-.04-37.69-4.64-12.5-4.77-23.93-11.77-35.34-18.72-1.77-1.08-3.6-2.55-6-1.81-8.17-6.53-17.88-9.08-27.91-10.71-6.01-.98-12.05-1.74-18.08-2.6,1.34-4.24,4.3-7.78,5.27-12.21.36-1.62,1.47-1.65,3-.91,4,1.95,8.12,3.68,12.21,5.44,1.91.82,4.04,1.2,5.81.02,2.19-1.45.78-3.64.57-5.54.67.17,1.4.23,2.02.52,21.59,10.04,44.1,15.64,68.08,14.1,3.72-.24,7.47.39,11.16-.71,12.02-3.59,24.02-6.83,35.12-13.28,8.96-5.21,17.3-11.23,25.45-17.41,8.08-6.13,14.86-13.93,22.9-20.27,5.09-4.01,9.61-8.72,14.39-13.12Zm75.21,65.48c.35-2.94-1.89-3.82-3.67-3.78-1.62.04-3.52,1.2-3.41,3.65.09,2.12,1.28,3.94,3.1,3.65,1.58-.25,4.86-.14,3.99-3.52Z"/>
      <path class="cls-7" d="m762.34,45.08c-2.77.29-3.76,2.62-5.25,4.46-5.44,6.74-9.72,14.21-13.91,21.74-8.26-1.4-16.47-3.13-24.78-4.11-10.65-1.26-21.2,0-31.71,2.18-9.47,1.96-18.4,4.37-26.39,10.6-15.97,12.45-23.81,29.56-29.8,48-1.74-.32-3.16-.99-2.52-3.13,1.33-4.44-1.33-8.67-.56-13.14.27-1.54-1.53-2.99-3.18-3-3.43-.03-3.52-2.07-3.45-4.61.05-1.81.62-3.21,1.63-4.74,3.36-5.12,2.26-8.35-2.61-9.37-3.1-.65-4.08-.28-2.22,2.75.74,1.2.74,2.27-.78,2.71-1.33.38-2.28,2.22-3.87,1.31-1.19-.68-1.02-2.17-.55-3.14,2.76-5.66,4.38-11.83,7.81-17.18,2.59-4.04,5.02-7.85,1.38-12.8-1.54-2.09-1.46-5.15-1.7-7.91-.61-7.18,1.76-13.92,2.55-20.88.74-6.49.31-6.53-5.88-5.39-.56.1-1.15,0-1.73-.02,1.63-1.98,3.24-3.98,5.52-5.27.84-.14,1.26-.66,1.37-1.47,13.72-12.2,29.97-18.33,47.97-21.11,8.78-1.36,17.51-1.91,26.23-1.33,13.68.91,27.06,3.9,40.47,6.78,8.91,1.91,17.05,6.05,25.96,7.69v30.39Z"/>
      <path class="cls-4" d="m480.55,224.07c-4.78,4.4-9.3,9.12-14.39,13.12-8.04,6.34-14.82,14.14-22.9,20.27-8.15,6.18-16.48,12.2-25.45,17.41-11.1,6.45-23.1,9.69-35.12,13.28-3.69,1.1-7.44.48-11.16.71-23.98,1.54-46.49-4.06-68.08-14.1-.62-.29-1.34-.35-2.02-.52,0,0-.05,0-.05,0-.25-.9-.94-.94-1.7-.87l-.02-.02c-.16-1.07-1.12-.8-1.77-1.04-3.31-1.94-6.66-3.82-9.93-5.82-10.66-6.5-19.25-15.39-27.66-24.43-9.24-9.92-18.29-20.01-27.78-29.7-8.53-8.71-17.86-16.02-28.55-21.87-7.23-3.96-15.17-6.24-22.32-10.27,0-1.59,1.21-2.56,1.96-3.76,9.61-15.31,22.22-27.78,37.55-37.08,8.29-5.03,17.66-8.33,27.17-10.88,12.36-3.32,24.92-4.04,37.65-3.89,11.03.12,21.58,2.45,32.28,5.13-.8,2.12-2.48,1.4-3.73,1.48-7.89.47-12.7,5.12-12.29,12.4.36,6.45,5.15,11.02,12.87,10.9,16.05-.24,32.12.34,48.15-.23,7.91-.28,11.59,4.48,15.53,9.63,7.36,9.63,12.94,20.49,20.86,29.78,3.87,4.54,7.28,9.51,10.92,14.27,7.93,10.37,18.8,15.19,30.98,17.52,6.15,1.18,12.11-1.47,18.07-2.87,7.15-1.69,14.16-1.94,20.94,1.46Zm-158.29,21.48c.04-8.33-5.09-13.8-12.95-13.82-8.27-.02-14.05,5.27-14.12,12.89-.08,10,4.77,15.53,13.64,15.57,8.36.03,13.38-5.44,13.42-14.64Zm-45.16-27.8c2.97-.04,6.07-3.53,5.9-6.65-.2-3.59-3.14-6.3-6.76-6.23-3.21.06-6.06,3.29-5.89,6.66.2,3.8,2.87,6.26,6.75,6.21Z"/>
      <path class="cls-5" d="m.56,162.7c10.58-8.09,64.56-47.67,129.81-33.7,40.87,8.75,82.39,37.72,103.13,76.6,17.12,32.08,15.34,62.02,46.34,87.97,16.37,13.7,31.84,17.9,31.47,18.9-.75,2.05-64.75-18.23-311.23-104.44.16-15.11.32-30.22.47-45.33Z"/>
      <path class="cls-6" d="m41.79,436.85c-12.03,2.75-24.24,2.79-36.47,2.22C1.9,438.92-.01,437.52,0,433.18c.18-75.05.15-150.1.09-225.15,0-2.88.72-4.66,3.28-6.29,20.9-13.29,43.04-23.82,67.01-30.15,6.59-1.74,13.52-2.26,20.32-3.17,9.03-1.21,18.15-1.65,27.19-.88,8.68.75,17.49.8,25.95,3.34-.4.39-.87.74-1.19,1.19-3.98,5.68-2.51,12.24-2.62,18.42-.29,15.19-.09,30.38-.11,45.57,0,1.7.51,3.72-1.09,4.89-3.85,2.81-1.11,4.46,1.13,5.56,4.71,2.33,7.1,6.66,9.87,10.66,1.05,1.51.74,3.33.47,5.32-.96,6.89-1.41,13.87-1.79,20.83-.28,5.18,1.01,10.77-.52,15.49-1.86,5.75-2.5,11.13-1.39,16.9.2,1.02.35,2.05-.86,2.6-4.04,1.82-4.49,5.18-3.89,8.99h.02c-3.3-.56-4.33,1.19-4.18,4.13.06,1.12.11,2.24.17,3.36-1.82,2.1-3.62,4.23-5.48,6.3-7.34,8.14-13.71,16.93-18.87,26.65-4.5,8.48-6.78,17.9-12.45,25.94-6.15,8.73-12.8,16.81-21.03,23.59-1.47,1.25-3.56,1.76-4.37,3.76l.02-.02c-.8-.12-1.36.23-1.74.92,0,0,.04-.02.04-.02-.3.29-.61.57-.91.86,0,0,.01,0,.01,0-2.3.07-3.16,1.99-4.41,3.41l.02-.02c-1.12.13-1.59,1.04-2.17,1.82-.52.19-1.06.34-1.56.57-7.47,3.49-15.09,6.54-23.18,8.29Zm50.51-209.94c-.21-1-.36-1.93-1.83-1.76-1.23.14-1.96.94-1.89,1.86.08,1.03.56,2.48,1.95,2.39,1.24-.09,1.82-1.2,1.76-2.48Zm-1.85,10.33c-1.06.11-1.54.81-1.49,1.76.06,1.15.72,1.9,1.96,1.78.98-.1,1.58-.78,1.52-1.76-.07-1.15-.75-1.82-1.99-1.78Zm17.92-10.5c-.31-.67-.73-1.53-1.74-1.45-1.13.09-1.91.79-1.69,2.03.17.96.92,1.49,1.89,1.39.98-.11,1.48-.8,1.55-1.97Zm-1.89,10.46c-.96.33-1.75.89-1.61,2.1.11.99.86,1.53,1.77,1.51.92-.01,1.66-.62,1.72-1.58.08-1.18-.7-1.78-1.88-2.03Zm-28.65,1.53c-.45-.63-.86-1.64-2.12-1.38-.92.19-1.55.89-1.47,1.82.1,1.15.91,1.78,2.07,1.62.94-.13,1.44-.83,1.52-2.05Zm-.18-11.73c-.31-.82-.65-1.77-1.65-1.72-1.11.05-1.87.79-1.69,2.01.14.96.88,1.51,1.82,1.44.94-.07,1.51-.71,1.52-1.73Zm13.03-10.8c.98-.12,1.58-.7,1.6-1.64.03-1.23-.75-1.78-1.92-1.64-1,.12-1.43.8-1.35,1.77.09.99.67,1.49,1.66,1.51Zm15.8-3.46c-.89.27-1.63.76-1.51,1.78.13,1.13.84,1.84,2.07,1.58.96-.21,1.44-.95,1.29-1.91-.16-.96-.87-1.41-1.85-1.44Zm-44.92,14.28c-.12-.91-.57-1.6-1.52-1.7-1.32-.13-1.67.78-1.64,1.86.03.97.6,1.56,1.6,1.49.96-.07,1.46-.69,1.57-1.65Zm-1.48,13.74c.9-.25,1.51-.82,1.41-1.82-.09-.96-.67-1.64-1.7-1.58-1.08.06-1.42.88-1.39,1.82.03,1,.54,1.62,1.67,1.59Zm1.45-26.27c0-.94-.51-1.53-1.54-1.56-.81-.03-1.39.42-1.51,1.2-.14.95.23,1.72,1.29,1.84.99.11,1.64-.34,1.76-1.48Z"/>
      <path class="cls-3" d="m181.64,180.22c7.16,4.03,15.09,6.31,22.32,10.27,10.69,5.85,20.02,13.16,28.55,21.87,9.5,9.69,18.55,19.78,27.78,29.7,8.42,9.04,17,17.93,27.66,24.43,3.28,2,6.62,3.88,9.93,5.82.25.93.95,1.08,1.77,1.04,0,0,.02.02.02.02.32.78.93.98,1.7.87,0,0,.05,0,.05,0,.21,1.9,1.63,4.09-.57,5.54-1.77,1.18-3.9.8-5.81-.02-4.09-1.76-8.21-3.49-12.21-5.44-1.53-.75-2.65-.72-3,.91-.97,4.43-3.93,7.96-5.27,12.2-6.88.44-13.82-.83-20.64.85-3.57-2.49-6.8,0-10.16.7-7.23.44-14.21,3.01-21.55,2.59-1.51-2.63,1.93-2.88,2.19-5-4.9.11-6.53,4.56-9.52,7.08-3.97,3.19-8.77,4.17-13.58,5.1,1.39-6.23,7.61-8.63,10.32-13.95-6.69,3.84-11.17,10.06-16.13,15.76-.14.17-.31.31-.5.42-.41.36-.82.71-1.22,1.07-5.48,1.38-10.09,5.04-15.74,5.97.38-1.61,1.48-2.66,2.61-3.82,5.7-5.87,11.27-11.86,16.89-17.81-.43-.44-.86-.88-1.29-1.31-11.52,10.19-20.76,22.82-32.85,32.41-1.68.33-3.15.94-4.69,1.87-7.45,4.48-13.69,10.56-20.83,15.43-.05-1.12-.1-2.24-.16-3.36-.15-2.94.88-4.68,4.18-4.12,1.46,3.03,2.39-.11,2.82-.53,9.06-8.86,18-17.85,26.96-26.82,1.76-1.76,3.18-3.74,4.13-6.44-3.72.43-4.77,3.38-6.54,5.24-9.09,9.55-19.53,17.81-27.39,28.54-.6-3.82-.15-7.17,3.89-8.99,1.21-.54,1.06-1.58.86-2.6-1.11-5.77-.48-11.15,1.39-16.9,1.53-4.72.23-10.31.52-15.49.38-6.96.83-13.93,1.79-20.83.27-1.98.58-3.81-.47-5.32-2.77-3.99-5.16-8.32-9.87-10.66-2.24-1.11-4.98-2.76-1.13-5.56,1.6-1.16,1.09-3.18,1.09-4.89.02-15.19-.18-30.39.11-45.57.12-6.19-1.36-12.74,2.62-18.42.32-.45.79-.8,1.19-1.19,11.28,2.04,22.33,4.96,33.2,8.58,1.51.5,2.94,1.25,4.59.74Z"/>
      <path class="cls-3" d="m540.19,249.1c2.71.1,4.63.6,1.96,3.63-.46.52-1.04,1.27-.97,1.85,1.04,8.7-1.98,17.16-1.25,25.93.74,8.9-.16,17.93.28,26.87.27,5.41,1.71,10.76,2.63,16.14-3.29,2.14-5.64,5.02-4.27,9.04,2.14,6.31,7.52,7.2,13.78,6.64-2.02,4.18-4.81,7.09-7.57,10.12-9.55,10.46-20.03,19.35-33.71,24.18-6.94,2.45-14.09,3.49-21.19,4.86-8.8,1.69-17.82,1.4-26.7.82-11.64-.76-23.09-2.39-34.41-6.07-10.14-3.3-19.54-7.94-28.99-12.53-6.57-3.19-12.42-7.86-18.62-11.82-5.71-3.64-11.21-7.67-17.9-9.46-3.43-2.71-7.64-2.88-11.69-3.59-8.07-1.16-16.17-.81-24.28-.61-1.81-.35-3.61-.71-5.42-1.06-1.06-1.34-1.06-2.73-.76-4.42.49-2.69.84-5.47-3.29-6.11-1.99-.31-3.55-2.63-2.19-4.27,2.74-3.32,1.99-6.98,2.24-10.62.27-3.86,1.49-4.45,4.97-2.78.79.38,2.08,2.65,2.45-.36,1.42-.27,2.04.89,2.79,1.66,4.53,4.57,8.84,9.34,13.8,13.48,5.83,4.86,11.81,9.36,19.67,10.32,5.02,2.46,10.04,1.32,15.05-.03,2.45-.83,4.98-1.12,7.56-1.09,4.26.55,8.55.18,12.83.45,8.8.54,17.67,1.19,26.48-.22,11.2-1.53,22.15-4.48,31.89-9.99,12.71-7.2,25.02-15.2,35.22-26.01,6.83-7.24,14.13-14.05,21.2-21.08,8.79-8.75,17.34-17.78,28.39-23.84Zm-109.51,99.68c.09-2.26-1.1-2.53-2.51-2.44-1.6.1-2.84.7-2.62,2.58.2,1.66,1.57,2.44,2.96,2.48,1.86.05,2.06-1.59,2.17-2.61Zm24.07-2.44c-.74.09-2.31.18-2.24,2.15.06,1.72,1.41,2.41,2.89,2.45,1.45.03,2.31-.94,2.42-2.42.12-1.68-.87-2.23-3.07-2.18Zm-13.1-.04c-1.2.05-2.32.5-2.24,2.23.07,1.54,1.01,2.41,2.48,2.42,1.5,0,2.39-.98,2.5-2.44.13-1.72-1.01-2.2-2.74-2.21Z"/>
      <path class="cls-4" d="m201.32,298.77c4.82-.93,9.62-1.91,13.58-5.1,1.71.29,3.12-.43,4.48-1.33,1.1.17,2.3.71,2.97-.78l-.14.02c7.34.42,14.31-2.15,21.55-2.59,1.66-.08,3.36-.4,4.98-.18,2.22.31.27,1.23.11,1.89-1.3,1.21-2.88,1.87-4.56,2.32-3.48,2.8-6.95,5.6-10.43,8.4-1.49-.69-2.53.45-3.44,1.14-5.66,4.23-11.22,8.59-16.82,12.92-1.04-.08-1.21.82-1.6,1.45h.04c-3.95.82-5.98,4.06-8.44,6.74-3.24,2.8-6.6,5.47-9.68,8.44-2.81,2.72-6.72,4.59-7.58,8.98-2.41.63-3.53,2.83-5.22,4.34-.83.04-1.29.47-1.33,1.31-.27,0-.41.15-.42.43-.84.04-1.28.47-1.32,1.31-.28,0-.41.14-.42.42-.9-.02-1.35.42-1.33,1.33-.25.01-.38.15-.4.4-2.28-.55-3.88.6-5.23,2.2-3.08,3.65-6.7,6.63-10.85,8.98-6.28,3.49-10.94,8.82-15.75,13.95-10.18,10.87-18.9,23.05-31.08,32.11-9.32,6.92-19.47,12.39-29.43,18.1-7.57,4.35-16.3,6.8-24.83,9.19-4.41.08-8.25,2.72-12.8,2.67-1.64-.02-2.91-.06-4.17-.98,8.09-1.75,15.72-4.8,23.18-8.29.5-.23,1.04-.39,1.56-.58,1.11-.15,2.16-.37,2.17-1.82,0,0-.02.02-.02.02,2.79.57,3.54-1.5,4.41-3.41,0,0-.01,0-.01,0,.69.12.98-.18.91-.86,0,0-.04.02-.04.02.88.26,1.52.07,1.74-.92,0,0-.02.02-.02.02,2.35-.21,3.65-1.66,4.37-3.76,8.23-6.78,14.88-14.86,21.03-23.59,5.67-8.04,7.95-17.47,12.45-25.94,5.16-9.72,11.53-18.51,18.87-26.65,1.87-2.07,3.66-4.2,5.48-6.3,7.13-4.87,13.37-10.95,20.83-15.43,1.54-.93,3.01-1.54,4.69-1.86-.09,1.3-1.12,1.97-1.91,2.76-7.42,7.42-14.98,14.7-21.8,22.7-1.29,1.51-2.91,2.8-2.38,5.63,3.37-3.36,6.65-6.34,9.6-9.61,9.82-10.88,20.08-21.31,31.14-30.95,5.65-.93,10.26-4.59,15.74-5.97.73.01,1.03-.47,1.22-1.07.19-.11.36-.25.5-.42,1.94-.6,3.87-1.2,5.81-1.8Zm-23.23,19.77c-.74.42-1.6.71-2.21,1.27-13.42,12.3-24.93,26.48-38.11,39.01-.87.82-1.5,1.78-.81,3.07.28-.06.64-.02.79-.18,10.23-10.37,20.94-20.28,30.6-31.22,3.41-3.86,7.5-7.14,9.78-11.93.06-.11.13-.22.19-.34l-.22.3Zm3.84-3.13c.08-.24.14-.4.2-.56-.11.03-.3.05-.31.1-.02.11.05.24.11.46Z"/>
      <path class="cls-4" d="m614.82,29.42c.58.01,1.17.13,1.73.02,6.19-1.14,6.61-1.1,5.88,5.39-.79,6.96-3.17,13.7-2.55,20.88.24,2.76.16,5.82,1.7,7.91,3.63,4.95,1.21,8.76-1.38,12.8-3.43,5.34-5.05,11.52-7.81,17.18-.47.97-.64,2.46.55,3.14,1.58.9,2.54-.93,3.87-1.31,1.52-.44,1.52-1.51.78-2.71-1.86-3.03-.88-3.4,2.22-2.75,4.88,1.02,5.97,4.25,2.61,9.37-1.01,1.53-1.58,2.93-1.63,4.74-.06,2.54.02,4.58,3.45,4.61,1.66.01,3.45,1.46,3.18,3-.77,4.47,1.89,8.7.56,13.14-.64,2.13.78,2.81,2.52,3.12-4.7,14-10.67,27.49-17.53,40.52-6.6,12.53-14.51,24.34-20.71,37.11-7.54.81-14.69-1.16-21.93-2.83-2.26-.52-4.99,1-6.83-1.57,2.57-4.76,6.22-8.73,10.3-12.09,11.63-9.55,14.34-22.71,15.18-36.56.69-11.38-.97-22.69-1.69-34.03-.6-9.3-.75-18.72.4-28.06,8.84-.09,17.66-8.44,18.34-17.32.49-6.4-.38-12.32-5.66-16.8-.94-.8-1.5-2.03-2.24-3.06,5.63-7.9,9.97-16.7,16.71-23.82Z"/>
      <path class="cls-7" d="m181.14,345.43c1.69-1.51,2.81-3.7,5.22-4.34,1.57.46,2.66-.8,3.99-1.1,2.63-.58,4.52-3.5,7.64-2.37.08,1.97-1.26,3.16-2.47,4.36-3.59,3.53-7.36,6.89-10.85,10.52-11.44,11.94-23.58,23.21-34.37,35.77-1.4,1.63-3.14,2.96-4.63,4.52-.51.53-.55,1.43.02,1.98.77.75,1.25-.1,1.73-.56.94-.9,1.87-1.8,2.77-2.74,11.49-11.89,22.96-23.8,34.46-35.69,6.09-6.3,12.84-11.93,18.23-18.95,1.71-2.22,3.92-4.58,7.03-5.33,3.41-.96,6.52-2.86,10.11-3.29-1.91,5.5-6.67,8.86-10.31,12.91-8.04,8.96-16.92,17.16-25.44,25.7-8.26,8.28-16.55,16.54-24.73,24.91-3.17,3.25-6.05,6.77-9.06,10.17,1.01.97,1.83.83,2.51.16,6.91-6.67,14.44-12.85,20.55-20.19,8.13-9.76,17.46-18.27,26.19-27.39,4.97-5.19,10.46-9.92,15.18-15.32,4.73-5.41,9.57-10.63,15.26-15.02,3.32-.88,6.63-1.76,9.95-2.64,1.01,1.74-.28,2.57-1.34,3.57-4.07,3.86-8.55,7.39-12.04,11.72-4.7,5.82-10.04,10.96-15.27,16.22-8.04,8.08-16.05,16.2-24.31,24.07-4.24,4.04-8.14,8.53-12.01,12.96-11.63,13.31-24.54,24.64-41.86,30.07-9.01,2.82-17.66,6.98-26.8,9.1-7.41,1.72-14.79,3.87-22.66,4.19-6.35.26-12.81,1.62-19.24,2.25-1.95.19-4,.84-5.84-.52,8.53-2.39,17.26-4.84,24.83-9.19,9.95-5.72,20.11-11.18,29.43-18.1,12.18-9.05,20.9-21.24,31.08-32.11,4.81-5.13,9.47-10.47,15.75-13.95,1.4,2.07-.62,2.84-1.6,3.82-5.46,5.49-11.99,9.95-16.02,16.8-.47.8-1.92,1.51-.95,2.47,1.22,1.21,2.04-.26,2.75-1.05,1.33-1.48,2.39-3.23,3.85-4.56,9.9-9.02,18.45-19.35,28.04-28.66.01-.25.15-.39.4-.4.44-.44.89-.89,1.33-1.33,0-.28.14-.42.42-.42.44-.44.88-.87,1.32-1.31,0-.28.15-.42.42-.43.44-.44.89-.87,1.33-1.31Z"/>
      <path class="cls-6" d="m220.02,328.23c-3.59.43-6.7,2.33-10.11,3.29-.16-2.24,1.64-3.26,2.93-4.55,10.32-10.28,20.65-20.54,31.04-30.74,1.13-1.11,1.03-2.04.42-3.21,1.69-.45,3.27-1.11,4.56-2.32,2.26.4,3.42-1.52,5.07-2.41,6.82-1.68,13.77-.41,20.64-.85,6.03.86,12.07,1.62,18.08,2.6,10.03,1.64,19.75,4.18,27.91,10.71,2.19.96,3.46,2.84,4.72,4.71-.37,3.01-1.66.74-2.45.36-3.48-1.67-4.7-1.08-4.97,2.78-.25,3.64.5,7.31-2.24,10.62-1.36,1.64.2,3.97,2.19,4.27,4.13.63,3.78,3.42,3.29,6.11-.31,1.7-.31,3.08.75,4.42-7.48-1.06-14.48-3.59-21.15-7.03-7.49-3.86-15.46-5.96-23.65-7.75-4.39-.96-8.92.46-13.11-1.42-.26-1.77,3.57-2.62,1.59-4.19-1.97-1.56-2.87,1.54-4.3,2.47-1.43.93-2.73,2.06-4.08,3.1-2.68.04-5.35.09-8.03.13,1.12-3.39,3.77-5.63,6.11-8.1,1.22-1.29,2.86-2.3,3.59-4.78-3.56,1.05-4.98,3.85-7.1,5.72-3.73,3.29-6.31,7.98-11.59,9.32-3.31.87-6.63,1.75-9.95,2.63.36-1.85,1.89-2.84,3.08-4.05,5.77-5.82,11.62-11.57,17.35-17.43.59-.6,2.43-1.32.88-2.59-1.09-.89-2.14-.07-2.97.85-1.43,1.6-2.84,3.24-4.36,4.76-7.81,7.77-14.51,16.73-24.16,22.53Z"/>
      <path class="cls-7" d="m263.95,317.84c4.2,1.88,8.72.46,13.11,1.42,8.19,1.79,16.17,3.89,23.65,7.75,6.67,3.44,13.67,5.97,21.15,7.03,1.81.35,3.62.71,5.42,1.06-1.01,1.57-2.64.99-3.94.92-9.26-.5-18.44.56-27.32,2.75-8.22,2.03-16.82,2.32-24.74,5.71-2.08.89-4.54,1.75-7.24.36,3.41-3.72,6.67-7.27,9.91-10.82.77-.84,1.94-1.83.62-2.87-1.26-1-1.57.61-2.18,1.27-4.31,4.66-8.81,9.15-12.86,14.02-3.98,4.78-10.25,4.5-15.06,7.4-.73.44-1.58-1.03-.55-2.07,6.28-6.38,11.43-13.81,18.25-19.69,2.73-2.35,5.28-4.92,7.88-7.42.82-.78,2.05-1.79.9-2.87-.9-.85-1.78.4-2.44,1.07-8.08,8.26-16.34,16.36-24.14,24.89-8.34,9.13-18.06,16.24-29.05,21.74-.84.42-1.62.5-3.04-.89,5.67-5.46,11.45-10.79,16.95-16.39,4.51-4.6,8.89-9.36,13.43-13.9,6.94-6.95,13.36-14.5,21.27-20.45Z"/>
      <path class="cls-3" d="m598.12,53.24c.74,1.03,1.3,2.26,2.24,3.06,5.29,4.49,6.15,10.4,5.66,16.8-.68,8.89-9.5,17.23-18.34,17.32-12.32-.31-18.14-8.74-20.36-17.27-2.71-10.39,7.22-21.41,18.62-22.09,4.31-.26,8.19,1.06,12.17,2.17Z"/>
      <path class="cls-7" d="m102.55,132.81c.9,10.36-9.76,18.8-18.95,19.1-10.17.33-18.48-9.31-18.72-19.51-.32-13.41,10.7-20.39,18.3-20.36,11.35.05,19.57,7.81,19.37,20.77Z"/>
      <path class="cls-7" d="m577.63,297.64c-4.47-7.52-6.64-15.17-1.93-23.52,4.07-7.21,14.95-11.12,22.66-7.83,2.55,1.09,5.61,1.21,7.46,3.71,8.91,10.44,6.17,21.37-.13,28.61-6.34,7.28-18.49,8.22-25.31,1.06-.77-.81-1.83-1.36-2.75-2.03Z"/>
      <path class="cls-4" d="m291.97,380.3c-3.21-12.01,3.73-23.01,15.91-25.23,10.67-1.94,20.91,6.39,21.28,17.22.23,6.84-.37,13.32-6.78,17.57-5.94-1.42-11.44-4.43-17.77-4.51-4.76-.06-9.52-.65-12.64-5.06Z"/>
      <path class="cls-7" d="m249.13,319.36c2.67-.04,5.35-.09,8.03-.13-4.1,5.71-9.19,10.52-14.1,15.5-9.4,9.52-18.82,19.01-28.15,28.6-12.62,12.98-25.1,26.11-40.94,35.36-1.31.77-2.51,1.98-4.57,1.04,3.69-3.97,7.2-7.91,10.88-11.68,11.35-11.62,22.41-23.55,34.26-34.63,9.13-8.55,16.6-18.7,26.47-26.5,2.88-2.28,4.5-6.01,8.12-7.55Z"/>
      <path class="cls-4" d="m699.88,244.66c-1.81-5.52.28-11.55,5.32-15.3,4.76-3.55,10.5-3.55,15.46.08,1.14.84,2.02,2.04,3.5,2.38-.3,1.17.63,1.8,1.11,2.65,3.68,6.54-.2,17.14-6.96,20.18-7.95,3.57-15.2-1.6-17.49-8.18-.23-.67-.22-1.42-.94-1.82Z"/>
      <path class="cls-3" d="m583.07,30.37c-5.9.04-9.91-3.3-10-8.33-.1-5.74,3.59-9.76,9-9.81,5.08-.05,10.14,4.51,10.03,9.04-.12,5.19-3.97,9.06-9.04,9.1Z"/>
      <path class="cls-7" d="m291.97,380.3c3.12,4.41,7.88,5,12.64,5.06,6.33.08,11.83,3.09,17.77,4.51-11.57,8.78-27.22,2.79-30.41-9.57Z"/>
      <path class="cls-4" d="m355.82,366.45c-1.41-6.12,1.13-10.24,6.42-10.42,3.5-.12,6.14,1.13,7.39,4.62,1.4,3.9,1.22,7.25-3.16,9.15-2.89-3.21-7.05-2.4-10.65-3.34Z"/>
      <path class="cls-7" d="m106.86,101.56c-.02-3.78,2.87-6.85,6.52-6.93,3.72-.08,7.35,3.26,7.41,6.81.05,3.44-3.55,7.07-7.05,7.11-3.83.04-6.85-3.03-6.87-6.98Z"/>
      <path class="cls-4" d="m682.05,278.97c-.02,3.37-2.36,5.71-5.71,5.71-3.47,0-6-2.53-6.01-6-.01-3.54,2.41-5.89,6.06-5.87,3.41.01,5.68,2.49,5.66,6.16Z"/>
      <path class="cls-7" d="m351.56,335.71c4.05.7,8.26.88,11.69,3.59-2.65,2.07-5.7.99-8.27.36-4.79-1.17-9.57-2.29-14.52-2.89,3.65-1.44,7.43-.59,11.1-1.05Z"/>
      <path class="cls-7" d="m355.82,366.45c3.61.94,7.76.13,10.65,3.34-5.47,2.64-7.36,2.04-10.65-3.34Z"/>
      <path class="cls-3" d="m541.8,197.29c-2.11,2.35-4.48,1.61-6.87.55,2.22-1.06,4.54-.8,6.87-.55Z"/>
      <path class="cls-4" d="m621.71,22.67c-.1.82-.52,1.34-1.37,1.47.45-.49.91-.98,1.37-1.47Z"/>
      <path class="cls-3" d="m549.93,198.63c-.37-.26-.74-.53-1.1-.79.37.26.74.53,1.1.79Z"/>
      <path class="cls-1" d="m592.26,205.57c6.2-12.76,14.11-24.58,20.71-37.11,6.86-13.03,12.83-26.52,17.53-40.52,5.99-18.43,13.84-35.54,29.8-47.99,7.99-6.23,16.92-8.64,26.39-10.6,10.5-2.18,21.05-3.44,31.71-2.18,8.31.98,16.52,2.71,24.78,4.11-2.57,3.22-2.92,7.55-5.54,10.8-1.23,1.53-2.39,2.29-4.32,2.17-10.42-.64-20.71.49-30.84,2.76-10.32,2.31-19.56,7.16-27.44,14.12-5.76,5.09-12.11,9.78-16.25,16.46-4.62,7.47-9.79,14.59-13.67,22.52-2.62,5.35-6.93,9.66-9.68,15.01-9.48,18.39-22.6,34.01-37.32,48.38-1.63,1.6-3.23,3.3-5.86,2.06Z"/>
      <path class="cls-4" d="m325.3,305.47c-1.27-1.88-2.54-3.76-4.72-4.71,2.4-.74,4.24.74,6,1.81,11.41,6.96,22.84,13.95,35.34,18.72,12.06,4.6,24.29,7.36,37.69,4.64,8.48-1.73,16.96-3.14,24.86-6.59,13.29-5.81,26.51-12.24,37.78-21.26,9.95-7.96,20.53-15.08,30.23-23.41,7.15-6.15,14.12-12.34,19.62-19.88,3.99-5.47,8.5-10.36,12.95-15.39,4.29-4.85,9.5-8.59,15.11-11.19,7.82-3.62,16.21-5.22,24.43-.1,2.26,1.41,4.86,2.3,7.54,2.97,3.26.82,3.76,3.06,1.27,5.29-3.09,2.77-6.6,4.94-10.7,5.96-6.2,1.54-12.69,1.83-18.68,4.28-1.44.59-3.01.97-3.83,2.51-11.05,6.06-19.6,15.09-28.39,23.84-7.06,7.03-14.36,13.83-21.2,21.08-10.2,10.81-22.51,18.82-35.22,26.01-9.73,5.51-20.69,8.46-31.89,9.99-10.1-1.46-20.28-.6-30.42-.87-2.96-.08-6.01-.58-8.9.65-2.58-.02-5.11.26-7.55,1.09-5.02.01-10.04.02-15.06.03-7.86-.96-13.85-5.46-19.67-10.32-4.96-4.13-9.27-8.91-13.8-13.48-.76-.76-1.38-1.93-2.79-1.66Z"/>
      <path class="cls-7" d="m555.76,289.55c.87,3.38-2.4,3.27-3.99,3.52-1.82.29-3.01-1.53-3.1-3.65-.11-2.45,1.79-3.61,3.41-3.65,1.78-.04,4.03.84,3.67,3.78Z"/>
      <path class="cls-1" d="m92.31,226.91c.04,1.29-.54,2.4-1.77,2.48-1.39.1-1.87-1.36-1.95-2.39-.07-.92.65-1.72,1.89-1.86,1.46-.17,1.62.76,1.84,1.76Z"/>
      <path class="cls-1" d="m90.45,237.24c1.23-.04,1.91.63,1.98,1.79.06.98-.54,1.66-1.52,1.76-1.23.12-1.9-.63-1.96-1.78-.05-.95.43-1.66,1.49-1.76Z"/>
      <path class="cls-1" d="m108.37,226.75c-.07,1.17-.57,1.86-1.55,1.97-.97.11-1.72-.43-1.89-1.39-.22-1.24.57-1.95,1.69-2.03,1.01-.08,1.44.78,1.74,1.45Z"/>
      <path class="cls-1" d="m106.47,237.21c1.19.25,1.96.85,1.88,2.03-.07.96-.8,1.57-1.72,1.58-.91.01-1.66-.52-1.77-1.51-.13-1.21.66-1.77,1.61-2.1Z"/>
      <path class="cls-1" d="m77.82,238.74c-.08,1.23-.58,1.92-1.52,2.05-1.16.16-1.97-.47-2.07-1.62-.08-.93.55-1.63,1.47-1.82,1.26-.26,1.67.75,2.12,1.38Z"/>
      <path class="cls-1" d="m77.65,227.02c-.02,1.01-.59,1.65-1.53,1.72-.93.07-1.67-.49-1.82-1.44-.18-1.22.58-1.96,1.69-2.01.99-.05,1.34.9,1.65,1.73Z"/>
      <path class="cls-1" d="m90.67,216.21c-.99-.02-1.57-.52-1.66-1.51-.08-.97.35-1.66,1.35-1.77,1.17-.14,1.95.41,1.92,1.64-.02.94-.63,1.52-1.61,1.65Z"/>
      <path class="cls-1" d="m106.49,212.74c.97.03,1.68.48,1.84,1.44.16.96-.32,1.7-1.29,1.91-1.23.27-1.94-.44-2.07-1.58-.12-1.02.62-1.51,1.52-1.78Z"/>
      <path class="cls-1" d="m61.55,227.03c-.1.95-.6,1.57-1.56,1.64-1,.07-1.57-.51-1.6-1.49-.03-1.08.32-1.99,1.64-1.86.95.09,1.4.78,1.52,1.71Z"/>
      <path class="cls-1" d="m60.07,240.77c-1.14.03-1.64-.59-1.67-1.59-.03-.94.31-1.76,1.39-1.82,1.02-.06,1.61.63,1.7,1.58.1,1-.51,1.58-1.41,1.82Z"/>
      <path class="cls-1" d="m61.52,214.5c-.13,1.13-.77,1.59-1.76,1.48-1.06-.12-1.43-.89-1.29-1.84.12-.78.7-1.23,1.51-1.2,1.03.03,1.53.62,1.54,1.56Z"/>
      <path class="cls-2" d="m73.1,422.77c-.87,1.91-1.62,3.98-4.41,3.41,1.25-1.42,2.12-3.34,4.41-3.41Z"/>
      <path class="cls-2" d="m80.05,417.28c-.73,2.1-2.02,3.55-4.37,3.76.81-2.01,2.91-2.52,4.37-3.76Z"/>
      <path class="cls-2" d="m68.71,426.16c-.01,1.45-1.06,1.67-2.17,1.82.58-.78,1.05-1.69,2.17-1.82Z"/>
      <path class="cls-2" d="m75.7,421.02c-.22.99-.86,1.17-1.74.92.38-.69.93-1.04,1.74-.92Z"/>
      <path class="cls-2" d="m74,421.92c.07.68-.22.98-.91.86.3-.29.61-.57.91-.86Z"/>
      <path class="cls-7" d="m322.26,245.55c-.05,9.2-5.07,14.67-13.42,14.64-8.87-.04-13.73-5.57-13.64-15.57.06-7.63,5.85-12.91,14.12-12.89,7.86.02,12.99,5.49,12.95,13.82Z"/>
      <path class="cls-7" d="m277.1,217.75c-3.88.05-6.55-2.41-6.75-6.21-.17-3.37,2.68-6.6,5.89-6.66,3.62-.07,6.56,2.63,6.76,6.23.17,3.12-2.93,6.61-5.9,6.65Z"/>
      <path class="cls-2" d="m301.38,274.24c-.77.11-1.38-.1-1.7-.87.75-.07,1.45-.03,1.7.87Z"/>
      <path class="cls-2" d="m299.66,273.35c-.82.04-1.52-.11-1.77-1.04.65.24,1.61-.04,1.77,1.04Z"/>
      <path class="cls-1" d="m178.05,308.04c-11.06,9.63-21.32,20.06-31.14,30.95-2.95,3.27-6.23,6.26-9.6,9.61-.53-2.83,1.1-4.12,2.38-5.63,6.81-8,14.38-15.28,21.8-22.7.79-.79,1.83-1.46,1.91-2.76,12.09-9.58,21.33-22.22,32.85-32.41.43.44.86.88,1.29,1.31-5.62,5.95-11.19,11.94-16.89,17.81-1.13,1.16-2.23,2.2-2.61,3.82Z"/>
      <path class="cls-1" d="m141.87,327.31c7.86-10.73,18.3-18.99,27.39-28.54,1.77-1.86,2.82-4.81,6.54-5.24-.95,2.69-2.37,4.67-4.13,6.44-8.95,8.97-17.9,17.96-26.96,26.82-.43.42-1.36,3.56-2.82.53,0,0-.02,0-.02,0Z"/>
      <path class="cls-1" d="m201.32,298.77c-1.94.6-3.87,1.2-5.81,1.8,4.95-5.7,9.43-11.91,16.13-15.76-2.7,5.33-8.93,7.72-10.32,13.95Z"/>
      <path class="cls-1" d="m219.39,292.34c-1.36.9-2.77,1.62-4.48,1.33,2.99-2.52,4.61-6.97,9.52-7.08-.26,2.12-3.7,2.37-2.19,5,0,0,.14-.02.14-.02-1.5-1.69-2.17-.2-2.97.78Z"/>
    </g>
  </g>
</svg>