<?xml version="1.0" encoding="UTF-8"?>
<svg id="Layer_2" data-name="Layer 2" xmlns="http://www.w3.org/2000/svg" xmlns:xlink="http://www.w3.org/1999/xlink" viewBox="0 0 476.4 145.4">
  <defs>
    <style>
      .cls-1 {
        fill: #4db748;
      }

      .cls-2 {
        fill: #f37321;
      }

      .cls-3 {
        fill: #d93838;
      }

      .cls-4 {
        clip-path: url(#clippath);
      }

      .cls-5 {
        fill: #efda3a;
      }

      .cls-6 {
        fill: none;
      }

      .cls-7 {
        fill: #e22f2f;
      }

      .cls-8 {
        fill: #f2af50;
      }
    </style>
    <clipPath id="clippath">
      <path class="cls-6" d="m143.2,134.8v10.5h-22.5c-14.4,0-26-11.6-26-26v-10.5h22.5c14.4,0,26,11.6,26,26Zm-19.1-113.5C103.5.4,77.1,0,72.7,0,43.3.3,24.7,17.9,21.3,21.3.7,41.9,0,67.6,0,72.7h0c0,36,27.8,71.6,72.7,72.7,5.1-.1,17.4,0,17.4,0v-36.7h-17.4c-2.4,0-15.4-.3-25.8-10.9-10-10.2-10.2-22.6-10.3-25.2h0c0-19.9,16.1-36,36-36h0c2.1,0,18.2.5,28.4,13.9,6.5,8.6,6.8,17.9,6.9,21.7.3,16.5-9.6,27.8-12.3,30.7,13.5,0,27-.1,40.5-.2,3-5.6,7.3-15.3,8.2-27.8,2.2-30.2-17.4-50.8-20.2-53.6h0Zm79.6,12.3c10.6,0,19.2,8.6,19.2,19.2v18.2c0,20.6-16.7,37.2-37.2,37.2h0c-20.7,0-37.4-16.7-37.4-37.4v-37.2h0c10.4,0,18.8,8.4,18.8,18.8v18.2c0,10.2,8.3,18.5,18.5,18.5h0c10,0,18.1-8.1,18.1-18.1v-37.4h0Zm92.1,74.6c0-10.4-8.4-18.8-18.8-18.8v-13.5c0-10-8.1-18-18-18h0v31.6h-18.6l18.5-32c5.2-9,2.1-20.5-6.9-25.7h0l-27.9,48.3c-2.1,3.6-2.8,7.5-2.4,11.3v.1c0,.3.1.5.1.8v.2c0,.2.1.3.1.5,0,.1.1.3.1.4s0,.2.1.3c0,.2.1.4.2.7v.1c.5,1.8,1.2,3.4,2.1,4.9v.1c.1.2.3.5.4.7.1.1.1.2.2.3.1.2.2.3.3.5.1.1.2.2.3.3.1.1.2.3.3.4s.2.2.3.3c.1.1.2.3.3.4s.1.2.2.2c.1.2.3.3.4.4l.1.1c.2.2.4.4.6.5h0c3.3,2.9,7.7,4.7,12.5,4.7h18.6v18.8h0c10,0,18-8.1,18-18v-.8l18.9-.1h0Zm48.5-55.8c0-10.4-8.4-18.9-18.9-18.9h-55.3c0,10.4,8.4,18.9,18.9,18.9h9.3v55.8c10.2,0,18.5-8.3,18.5-18.5v-37.3h27.5Zm57,8.7h0c0,15.3-12.4,27.7-27.7,27.7h0c-3.1,0-6.1-.5-8.9-1.5v20.7h-18.8V33.4h27.7c15.3,0,27.7,12.4,27.7,27.7Zm-18.8.7c0-5.1-4.1-9.3-9.3-9.3h-8.5v18.5h8.5c5.1,0,9.3-4.1,9.3-9.2Zm-.4,27.2h-10.7v5.8c0,7.2,5.8,13,13,13h10.7v-5.8c0-7.2-5.8-13-13-13Zm94.3-18.1h0c0,20.3-16.5,36.8-36.8,36.8h0c-20.3,0-36.8-16.5-36.8-36.8h0c0-20.3,16.5-36.8,36.8-36.8h0c20.3,0,36.8,16.5,36.8,36.8Zm-18.8,0c0-9.9-8-18-18-18h0c-9.9,0-18,8-18,18h0c0,9.9,8,18,18,18h0c9.9-.1,18-8.1,18-18h0Z"/>
    </clipPath>
  </defs>
  <g id="Layer_5" data-name="Layer 5">
    <g class="cls-4">
      <g>
        <path class="cls-1" d="m486.3-7.2c0,94.6,0,189.2.1,283.8,0,2.9-.4,3.6-3.5,3.6-252.6-.1-505.1-.1-757.7,0-3.2,0-3.7-.8-3.7-3.8.1-176.6.1-353.3,0-529.9,0-2.9.4-3.9,3.7-3.9,252.6.1,505.1.1,757.7,0,3,0,3.6.6,3.5,3.6-.2,12.4-.1,24.9-.1,37.3-8.9-1.6-17.1-5.8-26-7.7-13.4-2.9-26.8-5.9-40.5-6.8-8.7-.6-17.4,0-26.2,1.3-18,2.8-34.2,8.9-48,21.1-.5.5-.9,1-1.4,1.5-2.3,1.3-3.9,3.3-5.5,5.3-6.7,7.1-11.1,15.9-16.7,23.8-4-1.1-7.9-2.4-12.2-2.2-11.4.7-21.3,11.7-18.6,22.1,2.2,8.5,8,16.9,20.4,17.3-1.2,9.3-1,18.8-.4,28.1.7,11.3,2.4,22.6,1.7,34-.8,13.9-3.6,27-15.2,36.6-4.1,3.4-7.7,7.3-10.3,12.1-4.6-.3-8.7-3.4-13.6-2.5-.4-.3-.7-.5-1.1-.8-2.3-.2-4.7-.4-7-.5-2.3-.2-4.7-.5-6.9.6-10.2,1.1-20.2,3.2-29,8.6-8.8,5.4-17,11.7-25.4,17.6-6.8-3.4-13.8-3.1-20.9-1.5-6,1.4-11.9,4.1-18.1,2.9-12.2-2.3-23-7.1-31-17.5-3.6-4.8-7.1-9.7-10.9-14.3-7.9-9.3-13.5-20.1-20.9-29.8-3.9-5.1-7.6-9.9-15.5-9.6-16,.6-32.1,0-48.1.2-7.7.1-12.5-4.5-12.9-10.9-.4-7.3,4.4-11.9,12.3-12.4,1.2-.1,2.9.6,3.7-1.5-10.7-2.7-21.2-5-32.3-5.1-12.7-.1-25.3.6-37.7,3.9-9.5,2.6-18.9,5.9-27.2,10.9-15.3,9.3-27.9,21.8-37.5,37.1-.8,1.2-2,2.2-2,3.8-1.7.5-3.1-.2-4.6-.7-10.9-3.6-21.9-6.5-33.2-8.6-8.5-2.5-17.3-2.6-26-3.4-9-.8-18.2-.3-27.2.9-6.8.9-13.7,1.4-20.3,3.2-24,6.3-46.1,16.9-67,30.1-2.6,1.6-3.3,3.4-3.3,6.3.1,75.1.1,150.1-.1,225.1,0,4.3,1.9,5.7,5.3,5.9,12.2.6,24.4.5,36.5-2.2,1.3.9,2.5,1,4.2,1,4.5,0,8.4-2.6,12.8-2.7,1.8,1.4,3.9.7,5.8.5,6.4-.6,12.9-2,19.2-2.2,7.9-.3,15.2-2.5,22.7-4.2,9.1-2.1,17.8-6.3,26.8-9.1,17.3-5.4,30.2-16.8,41.9-30.1,3.9-4.4,7.8-8.9,12-13,8.3-7.9,16.3-16,24.3-24.1,5.2-5.3,10.6-10.4,15.3-16.2,3.5-4.3,8-7.9,12-11.7,1.1-1,2.3-1.8,1.3-3.6,5.3-1.4,7.9-6,11.6-9.3,2.1-1.9,3.5-4.7,7.1-5.7-.7,2.5-2.4,3.5-3.6,4.8-2.3,2.5-5,4.7-6.1,8.1-3.6,1.5-5.2,5.3-8.1,7.5-9.9,7.8-17.3,18-26.5,26.5-11.8,11.1-22.9,23-34.3,34.6-3.7,3.8-7.2,7.7-10.9,11.7,2.1,1,3.3-.3,4.6-1,15.8-9.3,28.3-22.4,40.9-35.4,9.3-9.6,18.8-19.1,28.2-28.6,4.9-5,10-9.8,14.1-15.5,1.4-1,2.7-2.2,4.1-3.1,1.4-.9,2.3-4,4.3-2.5s-1.8,2.4-1.6,4.2c-7.9,6-14.3,13.5-21.3,20.5-4.5,4.5-8.9,9.3-13.4,13.9-5.5,5.6-11.3,10.9-16.9,16.4,1.4,1.4,2.2,1.3,3,.9,11-5.5,20.7-12.6,29-21.7,7.8-8.5,16.1-16.6,24.1-24.9.7-.7,1.5-1.9,2.4-1.1,1.1,1.1-.1,2.1-.9,2.9-2.6,2.5-5.2,5.1-7.9,7.4-6.8,5.9-12,13.3-18.2,19.7-1,1-.2,2.5.5,2.1,4.8-2.9,11.1-2.6,15.1-7.4,4.1-4.9,8.6-9.4,12.9-14,.6-.7.9-2.3,2.2-1.3,1.3,1,.1,2-.6,2.9-3.2,3.5-6.5,7.1-9.9,10.8,2.7,1.4,5.2.5,7.2-.4,7.9-3.4,16.5-3.7,24.7-5.7,8.9-2.2,18.1-3.2,27.3-2.8,1.3.1,2.9.6,3.9-.9,8.1-.2,16.2-.5,24.3.6-3.7.5-7.5-.4-11.1,1,5,.6,9.7,1.7,14.5,2.9,2.6.6,5.6,1.7,8.3-.4,6.7,1.8,12.2,5.8,17.9,9.5,6.2,4,12,8.6,18.6,11.8,9.4,4.6,18.8,9.2,29,12.5,11.3,3.7,22.8,5.3,34.4,6.1,8.9.6,17.9.9,26.7-.8,7.1-1.4,14.2-2.4,21.2-4.9,13.7-4.8,24.2-13.7,33.7-24.2,2.8-3,5.6-5.9,7.6-10.1-6.2.6-11.6-.3-13.8-6.6-1.4-4,1-6.9,4.3-9,5.7-1.2,11.5-.3,17.3-.5,2-.1,3.4-.3,4.6-2.3,4.3-7.6,9.1-15.1,13-23,.9.7,2,1.2,2.8,2,6.8,7.2,19,6.2,25.3-1.1,6.3-7.2,9-18.2.1-28.6,4.2-1.6,8.3-3,12.9-2.8,6.6.2,13.2.2,19.9.4,8.5.3,17.1.2,25.2-2.5,13.3-4.5,25.2-11.7,36.2-20.4.7.4.7,1.1.9,1.8,2.3,6.6,9.5,11.8,17.5,8.2,6.8-3,10.7-13.6,7-20.2-.5-.9-1.4-1.5-1.1-2.6,1.5-.4,3.1-.7,4.5-1.2,11.1-4.1,22.2-6.7,33.8-6.8h0ZM79.8,135.3c3.3,5.4,5.2,6,10.7,3.3,4.4-1.9,4.6-5.2,3.2-9.1-1.2-3.5-3.9-4.7-7.4-4.6-5.4.1-7.9,4.2-6.5,10.4h0Zm-33.4,23.4c6.4-4.3,7-10.7,6.8-17.6-.4-10.8-10.6-19.2-21.3-17.2-12.2,2.2-19.1,13.2-15.9,25.2,3.2,12.4,18.8,18.4,30.4,9.6h0ZM-173.5-98.4c.2-12.9-8-20.7-19.4-20.8-7.6,0-18.6,6.9-18.3,20.4.2,10.2,8.5,19.8,18.7,19.5,9.3-.3,19.9-8.7,19-19.1h0Zm263.3,19.1c-7.2-6.5-15-9.2-22.1-13.1-9.6-5.3-20-5.6-30.6-5-5,.3-10.1,6.2-9.1,10.2,1.2,4.7,5.3,7.9,10.5,7.9,12.8.1,25.7,0,38.5,0,4,0,7.8,0,12.8,0Zm217.2-121.5c5.1,0,8.9-3.9,9-9.1.1-4.5-5-9.1-10-9-5.4,0-9.1,4.1-9,9.8.1,5,4.2,8.3,10,8.3h0Zm-21.2,294.3c-5.9,0-10.8-.2-15.7.1-4.9.2-7.5,5-5.2,8.9,2.2,3.6,11.7,4.6,14.3,1.3,2.3-3,4.2-6.4,6.6-10.3h0ZM-169.2-129.6c0,4,3,7,6.9,7,3.5,0,7.1-3.7,7.1-7.1-.1-3.6-3.7-6.9-7.4-6.8-3.7,0-6.6,3.1-6.6,6.9h0ZM406,47.8c0-3.7-2.2-6.1-5.7-6.2-3.7,0-6.1,2.3-6.1,5.9s2.5,6,6,6c3.5,0,5.8-2.3,5.8-5.7h0Z"/>
        <path class="cls-2" d="m204.5-7.1c8.5-5.9,16.7-12.2,25.4-17.6,8.8-5.4,18.8-7.5,29-8.6,2.4,1.1,4.8,1.8,6.9-.6,2.3.2,4.7.4,7,.5.4.3.7.5,1.1.8,4.8-.8,8.9,2.3,13.6,2.5,1.8,2.6,4.6,1.1,6.8,1.6,7.2,1.7,14.4,3.6,21.9,2.8,2.6,1.2,4.2-.5,5.9-2.1,14.7-14.4,27.8-30,37.3-48.4,2.8-5.3,7.1-9.6,9.7-15,3.9-7.9,9.1-15,13.7-22.5,4.1-6.7,10.5-11.4,16.2-16.5,7.9-7,17.1-11.8,27.4-14.1,10.1-2.3,20.4-3.4,30.8-2.8,1.9.1,3.1-.6,4.3-2.2,2.6-3.3,3-7.6,5.5-10.8,4.2-7.5,8.5-15,13.9-21.7,1.5-1.8,2.5-4.2,5.2-4.5V-7.5c-11.6.1-22.8,2.8-33.6,6.7-1.5.5-3,.8-4.6,1.2-1.5-.3-2.4-1.5-3.5-2.4-4.9-3.6-10.7-3.6-15.5-.1-5,3.8-7.1,9.8-5.3,15.3-11,8.7-22.9,15.9-36.2,20.4-8.1,2.7-16.6,2.8-25.2,2.5-6.6-.2-13.3-.1-19.9-.4-4.6-.1-8.7,1.2-12.9,2.8-1.8-2.5-4.9-2.6-7.5-3.7-7.7-3.3-18.6.6-22.7,7.8-4.7,8.3-2.5,16,1.9,23.5-3.9,7.9-8.6,15.4-12.9,23-1.2,2-2.6,2.3-4.6,2.3-5.8.2-11.6-.6-17.3.5-.9-5.4-2.4-10.7-2.6-16.1-.4-8.9.5-18-.3-26.9-.7-8.8,2.3-17.2,1.2-25.9-.1-.6.5-1.3,1-1.9,2.7-3,.8-3.5-2-3.6.8-1.5,2.4-1.9,3.8-2.5,6-2.5,12.5-2.7,18.7-4.3,4.1-1,7.6-3.2,10.7-6,2.5-2.2,2-4.5-1.3-5.3-2.7-.7-5.3-1.6-7.5-3-8.2-5.1-16.6-3.5-24.4.1-5.6,2.6-10.8,6.3-15.1,11.2-4.5,5-9,9.9-13,15.4-5.5,7.5-12.5,13.7-19.6,19.9-9.7,8.3-20.3,15.5-30.2,23.4-11.3,9-24.5,15.5-37.8,21.3-7.9,3.5-16.4,4.9-24.9,6.6-13.4,2.7-25.6,0-37.7-4.6-12.5-4.8-23.9-11.8-35.3-18.7-1.8-1.1-3.6-2.5-6-1.8-8.2-6.5-17.9-9.1-27.9-10.7-6-1-12.1-1.7-18.1-2.6,1.3-4.2,4.3-7.8,5.3-12.2.4-1.6,1.5-1.6,3-.9,4,2,8.1,3.7,12.2,5.4,1.9.8,4,1.2,5.8,0,2.2-1.5.8-3.6.6-5.5.7.2,1.4.2,2,.5,21.6,10,44.1,15.6,68.1,14.1,3.7-.2,7.5.4,11.2-.7,12-3.6,24-6.8,35.1-13.3,9-5.2,17.3-11.2,25.5-17.4,8.1-6.1,14.9-13.9,22.9-20.3,5.5-3.6,10.1-8.3,14.8-12.7h0Zm75.2,65.5c.3-2.9-1.9-3.8-3.7-3.8-1.6,0-3.5,1.2-3.4,3.6.1,2.1,1.3,3.9,3.1,3.6,1.6-.2,4.9,0,4-3.4h0Z"/>
        <path class="cls-5" d="m204.5-7.1c-4.8,4.4-9.3,9.1-14.4,13.1-8,6.3-14.8,14.1-22.9,20.3-8.2,6.2-16.5,12.2-25.5,17.4-11.1,6.5-23.1,9.7-35.1,13.3-3.7,1.1-7.4.5-11.2.7-24,1.5-46.5-4.1-68.1-14.1-.6-.3-1.3-.4-2-.5h0c-.2-.9-.9-.9-1.7-.9h0c-.2-1.1-1.1-.8-1.8-1-3.3-1.9-6.7-3.8-9.9-5.8C1.2,28.9-7.3,20-15.8,11-25,1.1-34.1-9-43.6-18.7c-8.5-8.7-17.9-16-28.6-21.9-7.2-4-15.2-6.2-22.3-10.3,0-1.6,1.2-2.6,2-3.8,9.6-15.3,22.2-27.8,37.6-37.1,8.3-5,17.7-8.3,27.2-10.9,12.4-3.3,24.9-4,37.7-3.9,11,.1,21.6,2.4,32.3,5.1-.8,2.1-2.5,1.4-3.7,1.5-7.9.5-12.7,5.1-12.3,12.4.4,6.4,5.2,11,12.9,10.9,16.1-.2,32.1.3,48.2-.2,7.9-.3,11.6,4.5,15.5,9.6,7.4,9.6,12.9,20.5,20.9,29.8,3.9,4.5,7.3,9.5,10.9,14.3,7.9,10.4,18.8,15.2,31,17.5,6.1,1.2,12.1-1.5,18.1-2.9,6.9-1.6,14-1.9,20.7,1.5h0ZM46.2,14.4c0-8.3-5.1-13.8-13-13.8-8.3,0-14,5.3-14.1,12.9-.1,10,4.8,15.5,13.6,15.6,8.5-.1,13.5-5.5,13.5-14.7h0ZM1.1-13.4c3,0,6.1-3.5,5.9-6.6-.2-3.6-3.1-6.3-6.8-6.2-3.2.1-6.1,3.3-5.9,6.7.2,3.7,2.9,6.1,6.8,6.1h0Z"/>
        <path class="cls-3" d="m-94.4-50.9c7.2,4,15.1,6.3,22.3,10.3,10.7,5.9,20,13.2,28.6,21.9C-34-9-25,1.1-15.7,11-7.3,20,1.3,28.9,12,35.4c3.3,2,6.6,3.9,9.9,5.8.2.9.9,1.1,1.8,1h0c.3.8.9,1,1.7.9h0c.2,1.9,1.6,4.1-.6,5.5-1.8,1.2-3.9.8-5.8,0-4.1-1.8-8.2-3.5-12.2-5.4-1.5-.8-2.7-.7-3,.9-1,4.4-3.9,8-5.3,12.2-6.9.4-13.8-.8-20.6.9-3.6-2.5-6.8,0-10.2.7-7.2.4-14.2,3-21.6,2.6-1.5-2.6,1.9-2.9,2.2-5-4.9.1-6.5,4.6-9.5,7.1-4,3.2-8.8,4.2-13.6,5.1,1.4-6.2,7.6-8.6,10.3-14-6.7,3.8-11.2,10.1-16.1,15.8-.1.2-.3.3-.5.4-.4.4-.8.7-1.2,1.1-5.5,1.4-10.1,5-15.7,6,.4-1.6,1.5-2.7,2.6-3.8,5.7-5.9,11.3-11.9,16.9-17.8-.4-.4-.9-.9-1.3-1.3-11.5,10.2-20.8,22.8-32.8,32.4-1.7.3-3.2.9-4.7,1.9-7.4,4.5-13.7,10.6-20.8,15.4-.1-1.1-.1-2.2-.2-3.4-.2-2.9.9-4.7,4.2-4.1,1.5,3,2.4-.1,2.8-.5,9.1-8.9,18-17.9,27-26.8,1.8-1.8,3.2-3.7,4.1-6.4-3.7.4-4.8,3.4-6.5,5.2-9.1,9.5-19.5,17.8-27.4,28.5-.6-3.8-.2-7.2,3.9-9,1.2-.5,1.1-1.6.9-2.6-1.1-5.8-.5-11.1,1.4-16.9,1.5-4.7.2-10.3.5-15.5.4-7,.8-13.9,1.8-20.8.3-2,.6-3.8-.5-5.3-2.8-4-5.2-8.3-9.9-10.7-2.2-1.1-5-2.8-1.1-5.6,1.6-1.2,1.1-3.2,1.1-4.9,0-15.2-.2-30.4.1-45.6.1-6.2-1.4-12.7,2.6-18.4.3-.4.8-.8,1.2-1.2,11.3,2,22.3,5,33.2,8.6,1.4.4,2.9,1.1,4.5.7h0Z"/>
        <path class="cls-3" d="m264.2,17.9c2.7.1,4.6.6,2,3.6-.5.5-1,1.3-1,1.9,1,8.7-2,17.2-1.2,25.9.7,8.9-.2,17.9.3,26.9.3,5.4,1.7,10.8,2.6,16.1-3.3,2.1-5.6,5-4.3,9,2.1,6.3,7.5,7.2,13.8,6.6-2,4.2-4.8,7.1-7.6,10.1-9.5,10.5-20,19.4-33.7,24.2-6.9,2.5-14.1,3.5-21.2,4.9-8.8,1.7-17.8,1.4-26.7.8-11.6-.8-23.1-2.4-34.4-6.1-10.1-3.3-19.5-7.9-29-12.5-6.6-3.2-12.4-7.9-18.6-11.8-5.7-3.6-11.2-7.7-17.9-9.5-3.4-2.7-7.6-2.9-11.7-3.6-8.1-1.2-16.2-.8-24.3-.6-1.8-.4-3.6-.7-5.4-1.1-1.1-1.3-1.1-2.7-.8-4.4.5-2.7.8-5.5-3.3-6.1-2-.3-3.5-2.6-2.2-4.3,2.7-3.3,2-7,2.2-10.6.3-3.9,1.5-4.5,5-2.8.8.4,2.1,2.6,2.5-.4,1.4-.3,2,.9,2.8,1.7,4.5,4.6,8.8,9.3,13.8,13.5,5.8,4.9,11.8,9.4,19.7,10.3,5,2.5,10,1.3,15,0,2.5-.8,5-1.1,7.6-1.1,4.3.5,8.5.2,12.8.5,8.8.5,17.7,1.2,26.5-.2,11.2-1.5,22.2-4.5,31.9-10,12.7-7.2,25-15.2,35.2-26,6.8-7.2,14.1-14,21.2-21.1,8.7-8.7,17.3-17.7,28.4-23.8h0Zm-109.5,99.7c.1-2.3-1.1-2.5-2.5-2.4-1.6.1-2.8.7-2.6,2.6.2,1.7,1.6,2.4,3,2.5,1.7,0,1.9-1.7,2.1-2.7h0Zm24-2.4c-.7.1-2.3.2-2.2,2.1.1,1.7,1.4,2.4,2.9,2.5,1.4,0,2.3-.9,2.4-2.4.1-1.7-.9-2.3-3.1-2.2h0Zm-13.1-.1c-1.2,0-2.3.5-2.2,2.2.1,1.5,1,2.4,2.5,2.4s2.4-1,2.5-2.4c.1-1.7-1-2.2-2.8-2.2h0Z"/>
        <path class="cls-7" d="m-56,97.1c-3.6.4-6.7,2.3-10.1,3.3-.2-2.2,1.6-3.3,2.9-4.5,10.3-10.3,20.7-20.5,31-30.7,1.1-1.1,1-2,.4-3.2,1.7-.5,3.3-1.1,4.6-2.3,2.3.4,3.4-1.5,5.1-2.4,6.8-1.7,13.8-.4,20.6-.9,6,.9,12.1,1.6,18.1,2.6,10,1.6,19.8,4.2,27.9,10.7,2.2,1,3.5,2.8,4.7,4.7-.4,3-1.7.7-2.4.4-3.5-1.7-4.7-1.1-5,2.8-.2,3.6.5,7.3-2.2,10.6-1.4,1.6.2,4,2.2,4.3,4.1.6,3.8,3.4,3.3,6.1-.3,1.7-.3,3.1.8,4.4-7.5-1.1-14.5-3.6-21.2-7-7.5-3.9-15.5-6-23.7-7.8-4.4-1-8.9.5-13.1-1.4-.3-1.8,3.6-2.6,1.6-4.2s-2.9,1.5-4.3,2.5c-1.4.9-2.7,2.1-4.1,3.1-2.7,0-5.3.1-8,.1,1.1-3.4,3.8-5.6,6.1-8.1,1.2-1.3,2.9-2.3,3.6-4.8-3.6,1-5,3.9-7.1,5.7-3.7,3.3-6.3,8-11.6,9.3-3.3.9-6.6,1.8-10,2.6.4-1.9,1.9-2.8,3.1-4,5.8-5.8,11.6-11.6,17.3-17.4.6-.6,2.4-1.3.9-2.6-1.1-.9-2.1-.1-3,.9-1.4,1.6-2.8,3.2-4.4,4.8-7.7,7.6-14.4,16.5-24,22.4h0Z"/>
        <path class="cls-8" d="m-12.1,86.7c4.2,1.9,8.7.5,13.1,1.4,8.2,1.8,16.2,3.9,23.7,7.8,6.7,3.4,13.7,6,21.2,7,1.8.4,3.6.7,5.4,1.1-1,1.6-2.6,1-3.9.9-9.3-.5-18.4.6-27.3,2.8-8.2,2-16.8,2.3-24.7,5.7-2.1.9-4.5,1.8-7.2.4,3.4-3.7,6.7-7.3,9.9-10.8.8-.8,1.9-1.8.6-2.9-1.3-1-1.6.6-2.2,1.3-4.3,4.7-8.8,9.1-12.9,14-4,4.8-10.2,4.5-15.1,7.4-.7.4-1.6-1-.6-2.1,6.3-6.4,11.4-13.8,18.3-19.7,2.7-2.4,5.3-4.9,7.9-7.4.8-.8,2-1.8.9-2.9-.9-.9-1.8.4-2.4,1.1-8.1,8.3-16.3,16.4-24.1,24.9-8.3,9.1-18.1,16.2-29.1,21.7-.8.4-1.6.5-3-.9,5.7-5.5,11.4-10.8,16.9-16.4,4.5-4.6,8.9-9.4,13.4-13.9,6.9-7,13.3-14.6,21.2-20.5h0Z"/>
        <path class="cls-8" d="m301.6,66.5c-4.5-7.5-6.6-15.2-1.9-23.5,4.1-7.2,15-11.1,22.7-7.8,2.5,1.1,5.6,1.2,7.5,3.7,8.9,10.4,6.2,21.4-.1,28.6-6.3,7.3-18.5,8.2-25.3,1.1-.9-.9-2-1.5-2.9-2.1Z"/>
        <path class="cls-5" d="m15.9,149.1c-3.2-12,3.7-23,15.9-25.2,10.7-1.9,20.9,6.4,21.3,17.2.2,6.8-.4,13.3-6.8,17.6-5.9-1.4-11.4-4.4-17.8-4.5-4.7-.1-9.4-.7-12.6-5.1h0Z"/>
        <path class="cls-2" d="m507.3,72.3h-51.1c-5.3,0-9.4-3.2-10.6-7.9-1-4,4.1-9.9,9.1-10.2,10.5-.6,20.9-.3,30.6,5,7.1,3.9,14.9,6.6,22,13.1Z"/>
        <path class="cls-5" d="m393.6,114.6c-3.7-11,.6-22.9,10.9-30.4,9.8-7.1,21.5-7.1,31.7.2,2.3,1.7,4.1,4.1,7.2,4.7-.6,2.3,1.3,3.6,2.3,5.3,7.5,13-.4,34.1-14.3,40.1-16.3,7.1-31.2-3.2-35.9-16.3-.4-1.3-.4-2.8-1.9-3.6h0Z"/>
        <path class="cls-2" d="m285.8,93.5c-2.5,3.9-4.3,7.2-6.6,10.3-2.6,3.3-12.1,2.3-14.3-1.3-2.3-3.9.3-8.7,5.2-8.9,4.9-.3,9.8-.1,15.7-.1h0Z"/>
        <path class="cls-5" d="m79.8,135.3c-1.4-6.1,1.1-10.2,6.4-10.4,3.5-.1,6.1,1.1,7.4,4.6,1.4,3.9,1.2,7.2-3.2,9.1-2.8-3.2-7-2.4-10.6-3.3h0Z"/>
        <path class="cls-5" d="m408.2,51.6c0,6.8-4.7,11.5-11.5,11.5s-12.1-5.1-12.1-12.1,4.8-11.8,12.2-11.8c6.9.1,11.4,5.1,11.4,12.4h0Z"/>
        <path class="cls-8" d="m75.5,104.5c4.1.7,8.3.9,11.7,3.6-2.7,2.1-5.7,1-8.3.4-4.8-1.2-9.6-2.3-14.5-2.9,3.7-1.4,7.5-.6,11.1-1.1h0Z"/>
        <path class="cls-8" d="m79.8,135.3c3.6.9,7.8.1,10.7,3.3-5.5,2.7-7.4,2.1-10.7-3.3Z"/>
        <path class="cls-5" d="m49.3,74.3c-1.3-1.9-2.5-3.8-4.7-4.7,2.4-.7,4.2.7,6,1.8,11.4,7,22.8,14,35.3,18.7,12.1,4.6,24.3,7.4,37.7,4.6,8.5-1.7,17-3.1,24.9-6.6,13.3-5.8,26.5-12.2,37.8-21.3,9.9-8,20.5-15.1,30.2-23.4,7.2-6.1,14.1-12.3,19.6-19.9,4-5.5,8.5-10.4,13-15.4,4.3-4.9,9.5-8.6,15.1-11.2,7.8-3.6,16.2-5.2,24.4-.1,2.3,1.4,4.9,2.3,7.5,3,3.3.8,3.8,3.1,1.3,5.3-3.1,2.8-6.6,4.9-10.7,6-6.2,1.5-12.7,1.8-18.7,4.3-1.4.6-3,1-3.8,2.5-11,6.1-19.6,15.1-28.4,23.8-7.1,7-14.4,13.8-21.2,21.1-10.2,10.8-22.5,18.8-35.2,26-9.7,5.5-20.7,8.5-31.9,10-10.1-1.5-20.3-.6-30.4-.9-3-.1-6-.6-8.9.6-2.6,0-5.1.3-7.5,1.1h-15.1c-7.9-1-13.8-5.5-19.7-10.3-5-4.1-9.3-8.9-13.8-13.5-.8-.6-1.4-1.8-2.8-1.5h0Z"/>
        <path class="cls-8" d="m279.7,58.4c.9,3.4-2.4,3.3-4,3.5-1.8.3-3-1.5-3.1-3.6-.1-2.5,1.8-3.6,3.4-3.6,1.8-.1,4.1.7,3.7,3.7h0Z"/>
        <path class="cls-8" d="m46.2,14.4c-.1,9.2-5.1,14.7-13.4,14.6-8.9,0-13.7-5.6-13.6-15.6.1-7.6,5.8-12.9,14.1-12.9,7.9.1,13,5.5,12.9,13.9h0Z"/>
        <path class="cls-2" d="m25.4,43.1c-.8.1-1.4-.1-1.7-.9.7-.1,1.4,0,1.7.9Z"/>
        <path class="cls-2" d="m23.6,42.2c-.8,0-1.5-.1-1.8-1,.7.2,1.7-.1,1.8,1Z"/>
        <path class="cls-2" d="m108.2,98.6c2.9-1.2,5.9-.7,8.9-.6,10.1.3,20.3-.6,30.4.9-8.8,1.4-17.7.8-26.5.2-4.3-.3-8.6.1-12.8-.5h0Z"/>
        <path class="cls-1" d="m154.6,117.6c-.1,1-.3,2.7-2.2,2.6-1.4,0-2.8-.8-3-2.5-.2-1.9,1-2.5,2.6-2.6,1.6,0,2.7.2,2.6,2.5h0Z"/>
        <path class="cls-1" d="m178.7,115.2c2.2,0,3.2.5,3.1,2.2-.1,1.5-1,2.5-2.4,2.4-1.5,0-2.8-.7-2.9-2.5-.1-2,1.5-2,2.2-2.1h0Z"/>
        <path class="cls-1" d="m165.6,115.1c1.7,0,2.9.5,2.7,2.2-.1,1.5-1,2.5-2.5,2.4-1.5,0-2.4-.9-2.5-2.4,0-1.7,1.1-2.1,2.3-2.2h0Z"/>
        <path class="cls-2" d="m85.5,99.8h15.1c-5,1.3-10,2.4-15.1,0Z"/>
      </g>
    </g>
  </g>
</svg>